{
    "accessors" : [
        {
            "bufferView" : 0,
            "componentType" : 5126,
            "count" : 886,
            "max" : [
                3.9691598415374756,
                3.969161033630371,
                23.372509002685547
            ],
            "min" : [
                -8.03688907623291,
                -3.969158887863159,
                -1.4323716163635254
            ],
            "type" : "VEC3"
        },
        {
            "bufferView" : 1,
            "componentType" : 5126,
            "count" : 886,
            "type" : "VEC3"
        },
        {
            "bufferView" : 2,
            "componentType" : 5126,
            "count" : 886,
            "type" : "VEC2"
        },
        {
            "bufferView" : 3,
            "componentType" : 5126,
            "count" : 886,
            "type" : "VEC2"
        },
        {
            "bufferView" : 4,
            "componentType" : 5123,
            "count" : 1650,
            "type" : "SCALAR"
        },
        {
            "bufferView" : 5,
            "componentType" : 5126,
            "count" : 32,
            "max" : [
                1.0000009536743164,
                -1.407226324081421,
                1.0000001192092896
            ],
            "min" : [
                -0.9999991059303284,
                -1.407226324081421,
                -0.9999999403953552
            ],
            "type" : "VEC3"
        },
        {
            "bufferView" : 6,
            "componentType" : 5126,
            "count" : 32,
            "type" : "VEC3"
        },
        {
            "bufferView" : 7,
            "componentType" : 5126,
            "count" : 32,
            "type" : "VEC2"
        },
        {
            "bufferView" : 8,
            "componentType" : 5126,
            "count" : 32,
            "type" : "VEC2"
        },
        {
            "bufferView" : 9,
            "componentType" : 5121,
            "count" : 90,
            "type" : "SCALAR"
        },
        {
            "bufferView" : 10,
            "componentType" : 5126,
            "count" : 32,
            "max" : [
                1.0000009536743164,
                -1.4072260856628418,
                5.53571891784668
            ],
            "min" : [
                -0.9999991059303284,
                -1.4072260856628418,
                3.5357189178466797
            ],
            "type" : "VEC3"
        },
        {
            "bufferView" : 11,
            "componentType" : 5126,
            "count" : 32,
            "type" : "VEC3"
        },
        {
            "bufferView" : 12,
            "componentType" : 5126,
            "count" : 32,
            "type" : "VEC2"
        },
        {
            "bufferView" : 13,
            "componentType" : 5126,
            "count" : 32,
            "type" : "VEC2"
        },
        {
            "bufferView" : 14,
            "componentType" : 5121,
            "count" : 90,
            "type" : "SCALAR"
        },
        {
            "bufferView" : 15,
            "componentType" : 5126,
            "count" : 36,
            "max" : [
                1.0437215566635132,
                0.2898545265197754,
                22.430410385131836
            ],
            "min" : [
                -0.9562785029411316,
                -1.3951671123504639,
                1.2653942108154297
            ],
            "type" : "VEC3"
        },
        {
            "bufferView" : 16,
            "componentType" : 5126,
            "count" : 36,
            "type" : "VEC3"
        },
        {
            "bufferView" : 17,
            "componentType" : 5126,
            "count" : 36,
            "type" : "VEC2"
        },
        {
            "bufferView" : 18,
            "componentType" : 5126,
            "count" : 36,
            "type" : "VEC2"
        },
        {
            "bufferView" : 19,
            "componentType" : 5121,
            "count" : 96,
            "type" : "SCALAR"
        },
        {
            "bufferView" : 20,
            "componentType" : 5126,
            "count" : 7,
            "max" : [
                3.1556100845336914,
                -1.2560310363769531,
                0.5054462552070618
            ],
            "min" : [
                1.5089542865753174,
                -1.256032109260559,
                -0.6775944232940674
            ],
            "type" : "VEC3"
        },
        {
            "bufferView" : 21,
            "componentType" : 5126,
            "count" : 7,
            "type" : "VEC3"
        },
        {
            "bufferView" : 22,
            "componentType" : 5126,
            "count" : 7,
            "type" : "VEC2"
        },
        {
            "bufferView" : 23,
            "componentType" : 5126,
            "count" : 7,
            "type" : "VEC2"
        },
        {
            "bufferView" : 24,
            "componentType" : 5121,
            "count" : 15,
            "type" : "SCALAR"
        },
        {
            "bufferView" : 25,
            "componentType" : 5126,
            "count" : 147,
            "max" : [
                -0.12040345370769501,
                -0.0791768953204155,
                8.046727180480957
            ],
            "min" : [
                -7.7775983810424805,
                -0.07918202131986618,
                6.077012538909912
            ],
            "type" : "VEC3"
        },
        {
            "bufferView" : 26,
            "componentType" : 5126,
            "count" : 147,
            "type" : "VEC3"
        },
        {
            "bufferView" : 27,
            "componentType" : 5126,
            "count" : 147,
            "type" : "VEC2"
        },
        {
            "bufferView" : 28,
            "componentType" : 5126,
            "count" : 147,
            "type" : "VEC2"
        },
        {
            "bufferView" : 29,
            "componentType" : 5121,
            "count" : 291,
            "type" : "SCALAR"
        },
        {
            "bufferView" : 30,
            "componentType" : 5126,
            "count" : 87,
            "max" : [
                1.6575729846954346,
                1.5833044052124023,
                16.205055236816406
            ],
            "min" : [
                -8.03688907623291,
                -1.4263527393341064,
                6.077012538909912
            ],
            "type" : "VEC3"
        },
        {
            "bufferView" : 31,
            "componentType" : 5126,
            "count" : 87,
            "type" : "VEC3"
        },
        {
            "bufferView" : 32,
            "componentType" : 5126,
            "count" : 87,
            "type" : "VEC2"
        },
        {
            "bufferView" : 33,
            "componentType" : 5126,
            "count" : 87,
            "type" : "VEC2"
        },
        {
            "bufferView" : 34,
            "componentType" : 5121,
            "count" : 159,
            "type" : "SCALAR"
        },
        {
            "bufferView" : 35,
            "componentType" : 5126,
            "count" : 56,
            "max" : [
                2.1077890396118164,
                -1.661144733428955,
                21.81220245361328
            ],
            "min" : [
                -2.1077866554260254,
                -2.107788562774658,
                14.807504653930664
            ],
            "type" : "VEC3"
        },
        {
            "bufferView" : 36,
            "componentType" : 5126,
            "count" : 56,
            "type" : "VEC3"
        },
        {
            "bufferView" : 37,
            "componentType" : 5126,
            "count" : 56,
            "type" : "VEC2"
        },
        {
            "bufferView" : 38,
            "componentType" : 5126,
            "count" : 56,
            "type" : "VEC2"
        },
        {
            "bufferView" : 39,
            "componentType" : 5121,
            "count" : 84,
            "type" : "SCALAR"
        }
    ],
    "asset" : {
        "generator" : "Khronos Blender glTF 2.0 I/O",
        "version" : "2.0"
    },
    "bufferViews" : [
        {
            "buffer" : 0,
            "byteLength" : 10632,
            "byteOffset" : 0
        },
        {
            "buffer" : 0,
            "byteLength" : 10632,
            "byteOffset" : 10632
        },
        {
            "buffer" : 0,
            "byteLength" : 7088,
            "byteOffset" : 21264
        },
        {
            "buffer" : 0,
            "byteLength" : 7088,
            "byteOffset" : 28352
        },
        {
            "buffer" : 0,
            "byteLength" : 3300,
            "byteOffset" : 35440
        },
        {
            "buffer" : 0,
            "byteLength" : 384,
            "byteOffset" : 38740
        },
        {
            "buffer" : 0,
            "byteLength" : 384,
            "byteOffset" : 39124
        },
        {
            "buffer" : 0,
            "byteLength" : 256,
            "byteOffset" : 39508
        },
        {
            "buffer" : 0,
            "byteLength" : 256,
            "byteOffset" : 39764
        },
        {
            "buffer" : 0,
            "byteLength" : 90,
            "byteOffset" : 40020
        },
        {
            "buffer" : 0,
            "byteLength" : 384,
            "byteOffset" : 40112
        },
        {
            "buffer" : 0,
            "byteLength" : 384,
            "byteOffset" : 40496
        },
        {
            "buffer" : 0,
            "byteLength" : 256,
            "byteOffset" : 40880
        },
        {
            "buffer" : 0,
            "byteLength" : 256,
            "byteOffset" : 41136
        },
        {
            "buffer" : 0,
            "byteLength" : 90,
            "byteOffset" : 41392
        },
        {
            "buffer" : 0,
            "byteLength" : 432,
            "byteOffset" : 41484
        },
        {
            "buffer" : 0,
            "byteLength" : 432,
            "byteOffset" : 41916
        },
        {
            "buffer" : 0,
            "byteLength" : 288,
            "byteOffset" : 42348
        },
        {
            "buffer" : 0,
            "byteLength" : 288,
            "byteOffset" : 42636
        },
        {
            "buffer" : 0,
            "byteLength" : 96,
            "byteOffset" : 42924
        },
        {
            "buffer" : 0,
            "byteLength" : 84,
            "byteOffset" : 43020
        },
        {
            "buffer" : 0,
            "byteLength" : 84,
            "byteOffset" : 43104
        },
        {
            "buffer" : 0,
            "byteLength" : 56,
            "byteOffset" : 43188
        },
        {
            "buffer" : 0,
            "byteLength" : 56,
            "byteOffset" : 43244
        },
        {
            "buffer" : 0,
            "byteLength" : 15,
            "byteOffset" : 43300
        },
        {
            "buffer" : 0,
            "byteLength" : 1764,
            "byteOffset" : 43316
        },
        {
            "buffer" : 0,
            "byteLength" : 1764,
            "byteOffset" : 45080
        },
        {
            "buffer" : 0,
            "byteLength" : 1176,
            "byteOffset" : 46844
        },
        {
            "buffer" : 0,
            "byteLength" : 1176,
            "byteOffset" : 48020
        },
        {
            "buffer" : 0,
            "byteLength" : 291,
            "byteOffset" : 49196
        },
        {
            "buffer" : 0,
            "byteLength" : 1044,
            "byteOffset" : 49488
        },
        {
            "buffer" : 0,
            "byteLength" : 1044,
            "byteOffset" : 50532
        },
        {
            "buffer" : 0,
            "byteLength" : 696,
            "byteOffset" : 51576
        },
        {
            "buffer" : 0,
            "byteLength" : 696,
            "byteOffset" : 52272
        },
        {
            "buffer" : 0,
            "byteLength" : 159,
            "byteOffset" : 52968
        },
        {
            "buffer" : 0,
            "byteLength" : 672,
            "byteOffset" : 53128
        },
        {
            "buffer" : 0,
            "byteLength" : 672,
            "byteOffset" : 53800
        },
        {
            "buffer" : 0,
            "byteLength" : 448,
            "byteOffset" : 54472
        },
        {
            "buffer" : 0,
            "byteLength" : 448,
            "byteOffset" : 54920
        },
        {
            "buffer" : 0,
            "byteLength" : 84,
            "byteOffset" : 55368
        }
    ],
    "buffers" : [
        {
            "byteLength" : 55452,
            "uri" : "data:application/octet-stream;base64,"
        }
    ],
    "extensions" : {},
    "materials" : [
        {
            "name" : "Base",
            "pbrMetallicRoughness" : {
                "baseColorFactor" : [
                    0.1381668746471405,
                    0.14322300255298615,
                    0.1473158895969391,
                    1
                ],
                "metallicFactor" : 0,
                "roughnessFactor" : 0.45555558800697327
            }
        },
        {
            "name" : "Red",
            "pbrMetallicRoughness" : {
                "baseColorFactor" : [
                    0.05780423432588577,
                    0.0010543233947828412,
                    0.007985838688910007,
                    1
                ],
                "metallicFactor" : 0,
                "roughnessFactor" : 0.6777777671813965
            }
        },
        {
            "name" : "Green",
            "pbrMetallicRoughness" : {
                "baseColorFactor" : [
                    0.002188901649788022,
                    0.049550753086805344,
                    0,
                    1
                ],
                "metallicFactor" : 0,
                "roughnessFactor" : 0.5
            }
        },
        {
            "name" : "Yellow",
            "pbrMetallicRoughness" : {
                "baseColorFactor" : [
                    0.04445616900920868,
                    0.043530914932489395,
                    0.00350004225037992,
                    1
                ],
                "metallicFactor" : 0,
                "roughnessFactor" : 0.5
            }
        },
        {
            "name" : "Left",
            "pbrMetallicRoughness" : {
                "baseColorFactor" : [
                    0.02447921223938465,
                    0.023583250120282173,
                    0.025394728407263756,
                    1
                ],
                "metallicFactor" : 0,
                "roughnessFactor" : 0.5
            }
        },
        {
            "name" : "Street",
            "pbrMetallicRoughness" : {
                "baseColorFactor" : [
                    0.011086717247962952,
                    0.060380689799785614,
                    0.35884642601013184,
                    1
                ],
                "metallicFactor" : 0,
                "roughnessFactor" : 0.5
            }
        },
        {
            "name" : "White",
            "pbrMetallicRoughness" : {
                "baseColorFactor" : [
                    0.420026957988739,
                    0.420026957988739,
                    0.420026957988739,
                    1
                ],
                "metallicFactor" : 0,
                "roughnessFactor" : 0.5
            }
        },
        {
            "name" : "Orange",
            "pbrMetallicRoughness" : {
                "baseColorFactor" : [
                    0.8000081181526184,
                    0.5829418301582336,
                    0.09079274535179138,
                    1
                ],
                "metallicFactor" : 0,
                "roughnessFactor" : 0.5
            }
        }
    ],
    "meshes" : [
        {
            "name" : "Circle",
            "primitives" : [
                {
                    "attributes" : {
                        "NORMAL" : 1,
                        "POSITION" : 0,
                        "TEXCOORD_0" : 2,
                        "TEXCOORD_1" : 3
                    },
                    "indices" : 4,
                    "material" : 0
                },
                {
                    "attributes" : {
                        "NORMAL" : 6,
                        "POSITION" : 5,
                        "TEXCOORD_0" : 7,
                        "TEXCOORD_1" : 8
                    },
                    "indices" : 9,
                    "material" : 1
                },
                {
                    "attributes" : {
                        "NORMAL" : 11,
                        "POSITION" : 10,
                        "TEXCOORD_0" : 12,
                        "TEXCOORD_1" : 13
                    },
                    "indices" : 14,
                    "material" : 2
                },
                {
                    "attributes" : {
                        "NORMAL" : 16,
                        "POSITION" : 15,
                        "TEXCOORD_0" : 17,
                        "TEXCOORD_1" : 18
                    },
                    "indices" : 19,
                    "material" : 3
                },
                {
                    "attributes" : {
                        "NORMAL" : 21,
                        "POSITION" : 20,
                        "TEXCOORD_0" : 22,
                        "TEXCOORD_1" : 23
                    },
                    "indices" : 24,
                    "material" : 4
                },
                {
                    "attributes" : {
                        "NORMAL" : 26,
                        "POSITION" : 25,
                        "TEXCOORD_0" : 27,
                        "TEXCOORD_1" : 28
                    },
                    "indices" : 29,
                    "material" : 5
                },
                {
                    "attributes" : {
                        "NORMAL" : 31,
                        "POSITION" : 30,
                        "TEXCOORD_0" : 32,
                        "TEXCOORD_1" : 33
                    },
                    "indices" : 34,
                    "material" : 6
                },
                {
                    "attributes" : {
                        "NORMAL" : 36,
                        "POSITION" : 35,
                        "TEXCOORD_0" : 37,
                        "TEXCOORD_1" : 38
                    },
                    "indices" : 39,
                    "material" : 7
                }
            ]
        }
    ],
    "nodes" : [
        {
            "mesh" : 0,
            "name" : "Circle",
            "rotation" : [
                0.7071068286895752,
                0,
                0,
                0.7071068286895752
            ],
            "scale" : [
                0.47443103790283203,
                0.47443103790283203,
                0.47443103790283203
            ],
            "translation" : [
                0,
                11.079694747924805,
                0
            ]
        }
    ],
    "scene" : 0,
    "scenes" : [
        {
            "name" : "Scene",
            "nodes" : [
                0
            ]
        }
    ]
}
